<?xml version="1.0" encoding="UTF-8"?>
<level>
  <owner>stolbitsa</owner>
  <repo>noski</repo>
  <version>v1.0.6</version>
  <next number="1" owner="stolbitsa" repo="inca-roads-1"/>
  <readme>
    <ru>96437e45e755f7b3841b3e4dade26d8f163b04b28410b906a463f30cbb299c50</ru>
    <en>2f76113aff1abef6ff91d5c997262dccefbb2dc3d44d15b866d7efd45f2633cb</en>
  </readme>
  <license>b1b99f5538d1fd3702219bff50c665196dfa42f6ee755c37fe41a6178d6bc6e5</license>
  <exercise number="1">
    <scale>minor</scale>
    <bpm>140</bpm>
    <lowestNote>1</lowestNote>
    <tonalities>5</tonalities>
    <video name="14-noski-1.mp4" size="1981965" type="video/mp4" volume="0.371">fcfb42b40546efb2cc94338613ae38e5de6b7328ab765db2e9713ad05e10388d</video>
    <notes>
      <note number="1" values="4" ticks="244" durationTicks="58" ppq="96" velocity="0.409"/>
      <note number="2" values="5" ticks="303" durationTicks="25" ppq="96" velocity="0.434"/>
      <note number="3" values="5" ticks="350" durationTicks="46" ppq="96" velocity="0.491"/>
      <note number="4" values="3" ticks="398" durationTicks="25" ppq="96" velocity="0.491"/>
      <note number="5" values="3" ticks="446" durationTicks="46" ppq="96" velocity="0.491"/>
      <note number="6" values="1" ticks="495" durationTicks="95" ppq="96" velocity="0.491"/>
    </notes>
  </exercise>
  <exercise number="2">
    <scale>minor</scale>
    <bpm>140</bpm>
    <lowestNote>1</lowestNote>
    <tonalities>5</tonalities>
    <video name="14-noski-2.mp4" size="1384858" type="video/mp4" volume="0.338">7a47b1aecc84a43a434e9d9ea28f11064f51e9db669e678281bc9a530f5afb33</video>
    <notes>
      <note number="1" values="4" ticks="110" durationTicks="47" ppq="96" velocity="0.409"/>
      <note number="2" values="5" ticks="158" durationTicks="24" ppq="96" velocity="0.434"/>
      <note number="3" values="5" ticks="205" durationTicks="43" ppq="96" velocity="0.491"/>
      <note number="4" values="3" ticks="252" durationTicks="25" ppq="96" velocity="0.491"/>
      <note number="5" values="3" ticks="301" durationTicks="46" ppq="96" velocity="0.491"/>
      <note number="6" values="1" ticks="350" durationTicks="95" ppq="96" velocity="0.491"/>
    </notes>
  </exercise>
  <exercise number="3">
    <scale>minor</scale>
    <bpm>140</bpm>
    <lowestNote>1</lowestNote>
    <tonalities>5</tonalities>
    <video name="14-noski-3.mp4" size="1888882" type="video/mp4" volume="0.313">d5d6123c7aa1756944157dda5c1f45f0572be48688afbfa39f208b300eef1cf9</video>
    <notes>
      <note number="1" values="5" ticks="106" durationTicks="47" ppq="96" velocity="0.409"/>
      <note number="2" values="4" ticks="154" durationTicks="24" ppq="96" velocity="0.434"/>
      <note number="3" values="4" ticks="201" durationTicks="46" ppq="96" velocity="0.491"/>
      <note number="4" values="3" ticks="250" durationTicks="24" ppq="96" velocity="0.491"/>
      <note number="5" values="3" ticks="297" durationTicks="46" ppq="96" velocity="0.491"/>
      <note number="6" values="1" ticks="346" durationTicks="95" ppq="96" velocity="0.491"/>
      <note number="7" values="3" ticks="490" durationTicks="48" ppq="96" velocity="0.491"/>
      <note number="8" values="1" ticks="539" durationTicks="95" ppq="96" velocity="0.491"/>
    </notes>
  </exercise>
  <exercise number="4">
    <scale>minor</scale>
    <bpm>140</bpm>
    <lowestNote>1</lowestNote>
    <tonalities>5</tonalities>
    <video name="14-noski-4.mp4" size="1588430" type="video/mp4" volume="0.345">f2a28d795e810cbd08aede67ebdfe83664dfa183de5383ce33b5e119829602ab</video>
    <notes>
      <note number="1" values="4" ticks="102" durationTicks="24" ppq="96" velocity="0.409"/>
      <note number="2" values="4" ticks="150" durationTicks="22" ppq="96" velocity="0.434"/>
      <note number="3" values="4" ticks="197" durationTicks="73" ppq="96" velocity="0.491"/>
      <note number="4" values="4" ticks="294" durationTicks="23" ppq="96" velocity="0.491"/>
      <note number="5" values="4" ticks="341" durationTicks="25" ppq="96" velocity="0.491"/>
      <note number="6" values="4" ticks="390" durationTicks="95" ppq="96" velocity="0.491"/>
    </notes>
  </exercise>
  <exercise number="5">
    <scale>minor</scale>
    <bpm>140</bpm>
    <lowestNote>1</lowestNote>
    <tonalities>5</tonalities>
    <video name="14-noski-5.mp4" size="1877413" type="video/mp4" volume="0.308">ff74363a9da80c69b1fc782b587d623a0774c818d8dd1edaad2f0836452913c9</video>
    <notes>
      <note number="1" values="3" ticks="104" durationTicks="24" ppq="96" velocity="0.409"/>
      <note number="2" values="3" ticks="152" durationTicks="24" ppq="96" velocity="0.434"/>
      <note number="3" values="3" ticks="199" durationTicks="27" ppq="96" velocity="0.491"/>
      <note number="4" values="3" ticks="247" durationTicks="26" ppq="96" velocity="0.491"/>
      <note number="5" values="3" ticks="295" durationTicks="26" ppq="96" velocity="0.491"/>
      <note number="6" values="3" ticks="344" durationTicks="25" ppq="96" velocity="0.491"/>
      <note number="7" values="3" ticks="392" durationTicks="23" ppq="96" velocity="0.491"/>
      <note number="8" values="3" ticks="440" durationTicks="46" ppq="96" velocity="0.491"/>
      <note number="9" values="1" ticks="489" durationTicks="95" ppq="96" velocity="0.491"/>
    </notes>
  </exercise>
  <exercise number="6">
    <scale>minor</scale>
    <bpm>140</bpm>
    <lowestNote>1</lowestNote>
    <tonalities>5</tonalities>
    <video name="14-noski-6.mp4" size="1556584" type="video/mp4" volume="0.331">3bf81b96bdd63d9cf2a4515e5a378c3c9ea3f7d8288d6c65ea6b858b20ed951c</video>
    <notes>
      <note number="1" values="4" ticks="102" durationTicks="24" ppq="96" velocity="0.402"/>
      <note number="2" values="4" ticks="150" durationTicks="22" ppq="96" velocity="0.433"/>
      <note number="3" values="4" ticks="197" durationTicks="73" ppq="96" velocity="0.488"/>
      <note number="4" values="4" ticks="294" durationTicks="23" ppq="96" velocity="0.488"/>
      <note number="5" values="4" ticks="341" durationTicks="25" ppq="96" velocity="0.488"/>
      <note number="6" values="4" ticks="390" durationTicks="95" ppq="96" velocity="0.488"/>
    </notes>
  </exercise>
  <exercise number="7">
    <scale>minor</scale>
    <bpm>140</bpm>
    <lowestNote>1</lowestNote>
    <tonalities>5</tonalities>
    <video name="14-noski-7.mp4" size="1927021" type="video/mp4" volume="0.305">92d423d3978ce457b0c511b90b7af1f90faa954e5568e8111d7e0bb47dde8f3f</video>
    <notes>
      <note number="1" values="3" ticks="134" durationTicks="24" ppq="96" velocity="0.402"/>
      <note number="2" values="3" ticks="182" durationTicks="24" ppq="96" velocity="0.433"/>
      <note number="3" values="3" ticks="229" durationTicks="27" ppq="96" velocity="0.488"/>
      <note number="4" values="3" ticks="277" durationTicks="26" ppq="96" velocity="0.488"/>
      <note number="5" values="3" ticks="325" durationTicks="26" ppq="96" velocity="0.488"/>
      <note number="6" values="3" ticks="374" durationTicks="25" ppq="96" velocity="0.488"/>
      <note number="7" values="3" ticks="422" durationTicks="23" ppq="96" velocity="0.488"/>
      <note number="8" values="3" ticks="470" durationTicks="46" ppq="96" velocity="0.488"/>
      <note number="9" values="1" ticks="519" durationTicks="95" ppq="96" velocity="0.488"/>
    </notes>
  </exercise>
</level>
